<svg id="SvgjsSvg1001" width="288" height="288" xmlns="http://www.w3.org/2000/svg" version="1.1" xmlns:xlink="http://www.w3.org/1999/xlink" xmlns:svgjs="http://svgjs.com/svgjs"><defs id="SvgjsDefs1002"></defs><g id="SvgjsG1008" transform="matrix(1,0,0,1,0,0)"><svg xmlns="http://www.w3.org/2000/svg" width="288" height="288" version="1.0" viewBox="0 0 337 335"><path d="M1514 3182 c-134 -47 -283 -183 -405 -370 -120 -183 -476 -907 -746-1517 -136 -307 -161 -373 -175 -474 -23 -164 42 -251 227 -303 79 -22 88 -22
868 -26 433 -1 787 1 787 5 0 4 -51 132 -113 283 l-113 275 -427 0 c-234 1
-429 3 -432 6 -3 3 42 113 99 245 303 702 472 1024 537 1024 30 0 85 -56 146
-149 57 -86 243 -438 243 -460 0 -8 -59 -11 -213 -11 l-212 0 -105 -237 c-58
-130 -106 -240 -108 -245 -2 -4 192 -8 431 -8 l434 0 21 -52 c11 -29 77 -192
146 -363 l125 -310 361 -3 c198 -1 360 0 360 3 0 6 6 -7 -422 930 -555 1214
-567 1240 -679 1406 -71 105 -167 212 -182 202 -5 -3 -7 -2 -4 4 11 18 -92
100 -108 86 -4 -5 -5 -3 -2 3 8 13 -40 37 -55 28 -6 -4 -8 -2 -4 4 10 16 -92
42 -166 42 -34 -1 -86 -9 -114 -18z" transform="matrix(.1 0 0 -.1 0 335)" fill="#d60404" class="color000 svgShape"></path></svg></g></svg>